<?xml version="1.0" encoding="utf-8"?>
<!-- Generator: Adobe Illustrator 19.2.1, SVG Export Plug-In . SVG Version: 6.00 Build 0)  -->
<svg version="1.1" id="Layer_1" xmlns="http://www.w3.org/2000/svg" xmlns:xlink="http://www.w3.org/1999/xlink" x="0px" y="0px"
	 viewBox="0 0 3864 3880" style="enable-background:new 0 0 3864 3880;" xml:space="preserve">
<style type="text/css">
	.st0{fill:url(#SVGID_1_);}
	.st1{fill:#FFFFFF;}
	.st2{fill:#C5D128;}
</style>
<g>
	<radialGradient id="SVGID_1_" cx="1903.4149" cy="1912.0126" r="1638.2152" gradientUnits="userSpaceOnUse">
		<stop  offset="0" style="stop-color:#0000F2"/>
		<stop  offset="1" style="stop-color:#00006D"/>
	</radialGradient>
	<path class="st0" d="M1789,279.4c25.6-1.7,51.3-3,77-3.4c26,0.2,52-0.3,78,0.3c26.2,0.6,52.5,1.8,78.6,3.6
		c17.3,1,34.4,3.6,51.7,4.9c3.6,10.3,6.2,20.8,9.6,31.2c35.3,117.1,70.5,234.1,105.8,351.2c1.7,4.8,2.2,10.1,5.2,14.4
		c43.7,9.6,86.7,22.1,129.2,36.1c28.1,9.4,55.9,19.6,83.3,30.9c4.8,1.8,9.4,4.4,14.6,5.4c4.8,1.1,9.2,3.7,14,4.8
		c2.5-0.9,4.4-3.1,6.6-4.6c108.1-81.3,216.1-162.7,324.3-243.9c90.2,53.2,176.3,113.9,254.7,183.6c-0.9,4.8-3.3,9.2-4.7,13.8
		c-45.4,124.8-90.9,249.7-136.4,374.5c24.5,27.9,48.2,56.4,70.3,86.2c23.9,31.9,46.1,65.1,66.9,99.1c0.6,1.2,2.2,0.9,3.4,1.3
		c3,4.5,6,8.9,8.8,13.5c14.4-0.1,28.8-1.1,43.2-1.1c80.3-2.3,160.7-4.3,241-6.6c13,0.1,26-1.2,39-1.1c9.6,0.1,19.2-1.1,28.9-0.9
		c21.5,0,43-1.6,64.5-1.3c34.6,77.4,62.4,157.8,84.1,239.7c4.6,17.7,8.8,35.6,13.2,53.3c-115.8,77.5-231.5,155.1-347.4,232.4
		c0,7.4,2,14.8,1.1,22.2c0.2-1.3,0.5-2.6,0.8-3.9c-0.2,12,2.4,23.9,1.1,35.9c0.2-2.3,0.4-4.5,0.8-6.8c0.8,20.7,1.9,41.4,1.8,62.2
		c0.5,0.1,1.5,0.3,1.9,0.4c0,40.1-1.2,80.2-5.3,120c0.6,0.3,1.7,1,2.3,1.3c-0.1,3.9-0.2,7.8-0.2,11.7
		c114.5,76.2,228.6,153,343.1,229.3c-10.2,44.9-22.6,89.3-37,133c-12.6,38.3-26.4,76.3-42,113.5c-5.5,12.7-11,25.4-16.7,38
		c-14.1-0.2-28.1-1.1-42.1-1.1c-13,0-26-1.1-39-1.1c-8,0.2-15.9-1-23.9-0.8c-9.4-0.1-18.8-0.2-28.1-0.9c-13.3-0.4-26.7-0.1-40-1
		c-54.3-1.2-108.6-2.9-162.9-4.3c-27.9-0.7-55.7-1.8-83.6-2.1c-44.5,75.4-97.2,146-156.3,210.7c0.1,4,0.8,7.9,2.5,11.5
		c45.2,124.1,90.3,248.4,135.5,372.5c0.4,1.1,0.9,2.2,1.4,3.3c-28.4,25.6-58.6,49.1-89.2,72c-31.4,23.2-63.6,45.3-96.5,66.4
		c-21.7,13.9-43.7,27.4-66.2,39.8c-1.7,0.7-3.8,3-5.6,1.3c-62.1-46.6-124.1-93.3-186.2-139.9c-48.7-36.5-97.2-73.3-146.1-109.7
		c-8.4,2.8-16.5,6.8-24.9,9.9c-64.6,25.9-131.2,46.6-199.1,62.1c-9,2.2-18.3,3.8-27.3,6.2c-12.1,41.4-24.9,82.5-37.2,123.9
		c-27.1,89.6-54.1,179.2-81.2,268.9c-26.3,3.4-52.9,4.5-79.3,5.8c-23.6,1.3-47.3,0.9-70.9,0.9c-43.1,0.2-86.2-1.5-129.1-4.7
		c-7.9-0.6-15.7-2.2-23.6-1.9c0.5-0.3,1-0.5,1.5-0.7c-5-0.1-9.9-0.9-14.8-1.3c-1.3-0.4-3.3,0.2-4-1.3
		c-38.9-129-77.8-258-116.6-387.1c-1.2-2.9-1.1-7.3-4.4-8.6c-73.8-16.9-146.3-40.1-216.3-68.9c-4.1-2.1-8.5-3.2-12.9-4.4
		c-4-1-8.1-4.5-12.2-3.4c-109.8,82.6-219.7,165.3-329.5,248c-34.6-20.2-68.4-41.8-101.5-64.4c-53.5-36.6-105-76.2-153.4-119.3
		c6-18.2,13.1-36,19.4-54.1c40.7-111.3,81.1-222.8,121.8-334.1c-51.5-57.8-97.9-120.1-138-186.3c-0.7,0-2,0-2.6-0.1
		c-3-4.5-6.2-9-9-13.7c-9.7-0.4-19.3,0.8-28.9,0.8c-73.7,1.9-147.4,4-221.1,5.9c-10.4-0.1-20.7,1-31,0.9
		c-10.6,0.3-21.3,0.1-31.8,0.9c-12.7,0.4-25.4,0-38.1,1c-10.7,0.5-21.4-0.1-32,0.9c-11.3,0.3-22.5,0.5-33.8,0.5
		c-42.1-94.2-74.3-192.7-97.2-293.2c115.3-76.8,230.3-154.1,345.5-231.1c0.7-0.7,2.2-1.1,1.9-2.4c-3.7-36.1-5.4-72.3-5.8-108.6
		c-0.5,0-1.4-0.1-1.9-0.1c0.2-39.9,1.1-80,5.5-119.7c-0.8-0.6-1.7-1.3-2.6-1.9c-0.5-4,1.9-9-0.7-12.2
		c-114-76.3-228-152.6-342.1-228.9c9.4-40.7,20.3-81.1,33.1-120.8c17.8-55.6,38.1-110.6,62.7-163.6c14.4,0.3,28.9,1.1,43.3,1.2
		c7.7-0.2,15.3,0.9,23,0.8c10.3,0.3,20.6,0,30.9,0.9c21.7,0.1,43.4,1.5,65.1,1.4c13.3,0.9,26.7,0.9,40,1.1c15.3,1,30.7,0.6,46,1.5
		c57.1,1.3,114.2,3.3,171.3,4.4c44.5-75.5,97.3-146.1,156.4-210.8c-0.2-6.6-3.2-12.6-5.3-18.8C889.1,941,848.6,829.8,808.2,718.6
		c-4.4-11.6-8.2-23.5-12.9-35c28.6-25.9,59.1-49.5,89.9-72.6c30.8-22.8,62.5-44.4,94.7-65.2c23.1-14.9,46.5-29.2,70.7-42.3
		c0.8-0.3,1.6-0.1,2.3,0.6c110.2,82.9,220.5,165.7,330.7,248.6c1.2,1.3,2.7,0.8,4.1,0.2c76.3-32.2,155.6-57.1,236.5-74.6
		c3.7-0.8,7.4-1.7,11.3-2.1c2.1-4.2,2.9-8.8,4.4-13.2c38.4-126.8,76.4-253.6,114.9-380.3C1766.1,281.7,1777.5,279.8,1789,279.4
		 M1841.6,753.9c-141.7,5.3-282.5,36.3-413.2,91.6c-141.3,59.6-270.6,147.5-377.9,257c-109.9,111.8-196.6,246.2-252.3,392.8
		c-32.3,84.8-54.2,173.6-65,263.7c-12.2,101.2-10.8,204.1,4.4,304.9c23.3,155.6,80.2,306,165.2,438.4
		c48.1,75.2,105.1,144.7,169.3,206.7c116.7,113,257.5,201.1,410.1,256.8c182.5,66.9,381.5,86.9,573.8,59.4
		c90.7-12.9,179.9-36.5,265.1-70.2c142.8-56.4,274.3-141.3,384.3-248.5c112-108.8,201.7-240.6,260.8-385.2
		c34.2-83.5,58.3-171.1,71.5-260.4c14.8-100.2,16.1-202.4,3.9-303c-11-90.6-33.2-179.8-65.8-265c-29.7-77.6-68.1-151.8-114-221
		c-86.7-130.7-200.5-243.2-331.9-328.8c-121.2-79.2-257.3-135.5-399-165C2036.1,758.2,1938.6,750.1,1841.6,753.9 M1619.1,811.9
		c81.7-19.5,165.6-29.8,249.6-31.2c-82,102.6-163.5,205.6-245.4,308.3c-105.7,0-211.5,0-317.2,0c41.8,80.3,83.8,160.6,125.6,241
		c-10.3,13-20.7,25.9-30.9,39c-116.6,0.1-233.2,0-349.8,0c54.1,78.5,108.3,157,162.4,235.6c-6.1,7.3-11.7,15.2-18.1,22.3
		c-136.5,0.2-273.1,0-409.6,0.1c40.1-159.6,117-309.7,222.3-436.2c98-118,220.3-215.6,356.9-285.2
		C1445.4,864.4,1531,832.9,1619.1,811.9 M1912.8,780.9c171.9,3.1,343,45.8,496.3,124c157.2,79.9,295.5,196.9,399.8,339.1
		c84.1,114.4,146.1,245.2,180.7,382.9c-133.5,0-267,0-400.5,0c-1.4-0.2-3.2,0.4-4.1-1c-3.5-4.2-6.8-8.5-10.1-12.8
		c56.2-81.4,112.3-162.8,168.4-244.2c-120.9,0-241.9,0-362.8,0c-7.8-10-15.9-19.9-23.7-29.9c43.4-83.4,86.9-166.7,130.3-250.1
		c-109.7,0-219.5,0-329.2,0c-81.5-102.4-163-204.8-244.4-307.3L1912.8,780.9 M1890.5,792.1c78.8,99,157.5,198,236.2,297
		c-157.5,0-314.9,0-472.4,0C1733.1,990,1811.8,891.1,1890.5,792.1 M1346.2,1113.3c86,0,171.9,0.1,257.9-0.1
		c-51.9,65.2-103.9,130.4-155.6,195.8c-8.3-14.8-15.7-30-23.7-45C1398.5,1213.8,1372.3,1163.6,1346.2,1113.3 M1635.4,1113.4
		c169.6-0.2,339.1,0,508.7-0.1c1.4-0.3,2.5,0.5,3.3,1.7c60.2,75.6,120.3,151.2,180.5,226.9c-4.7,9.1-9.5,18-14.1,27.1
		c-101.6,0.1-203.2,0-304.8,0c-40.1-58-80.1-116.1-120.1-174.1c-0.6-0.9-1.1-0.9-1.6,0c-40,58.1-80,116.1-120.1,174.2
		c-95.9,0-191.9,0.1-287.8-0.1c-6.2-12.1-12.5-24.1-18.8-36.2c54.1-68.3,108.5-136.4,162.7-204.7
		C1627.4,1123.3,1630.8,1117.8,1635.4,1113.4 M2177.1,1113.3c90,0.1,179.9,0,269.9,0.1c-35.6,68.3-71.2,136.6-106.8,204.9
		C2285.8,1249.9,2231.5,1181.6,2177.1,1113.3 M1797.1,1369c30.4-43.9,60.6-87.9,91-131.8c30.4,43.9,60.6,87.9,91,131.8
		C1918.4,1369,1857.7,1369,1797.1,1369 M1431.7,1369c4.1-5.1,8.1-10.3,12.3-15.4c2.7,5.1,5.4,10.2,8,15.4
		C1445.2,1369,1438.4,1369,1431.7,1369 M2344.4,1362.7c1.7,2.1,3.4,4.2,5.1,6.3c-2.8,0-5.6,0-8.3,0
		C2342.2,1366.9,2343.3,1364.8,2344.4,1362.7 M1097.7,1393.6c94.5,0,188.9,0,283.4,0c-50.7,63.5-101.1,127.3-151.8,190.8
		C1185.4,1520.7,1141.6,1457.1,1097.7,1393.6 M1243.7,1605.2c56.1-70.5,112.2-141.1,168.3-211.6c17.6-0.1,35.2-0.1,52.8,0
		c40.5,77.8,81.1,155.6,121.6,233.4c-109.2,0-218.3,0.1-327.5-0.1C1253.5,1620.1,1248.8,1612.5,1243.7,1605.2 M1492.2,1393.5
		c86,0.1,172,0,258,0c-48.9,71.1-98,142-146.8,213.1C1566.1,1535.7,1529.3,1464.6,1492.2,1393.5 M1619.3,1627
		c53.6-77.8,107.3-155.6,160.9-233.4c71.9-0.1,143.9-0.1,215.8,0c53.6,77.8,107.3,155.6,160.9,233.4c-42.8,0-85.6,0.1-128.4-0.1
		c-45.3-76.4-91-152.6-136.4-228.9c-40.5,67.9-81,135.7-121.4,203.6c-5,8.4-10.1,16.7-15,25.3
		C1710.2,1627.2,1664.7,1626.9,1619.3,1627 M2025.9,1393.6c91.7,0,183.4,0,275.1,0c-39.4,75.8-79.1,151.4-118.3,227.3
		C2130.3,1545.1,2078.1,1469.4,2025.9,1393.6 M2328.3,1393.6c13.6-0.1,27.2-0.1,40.8,0c58.4,73.5,116.9,146.9,175.3,220.4
		c-3,4.3-5.8,8.8-9.1,12.9c-109.5,0.1-219.1,0-328.6,0.1C2247.2,1549.2,2287.8,1471.4,2328.3,1393.6 M2400,1393.5
		c98.8,0.1,197.6,0,296.4,0.1c-45.9,66.5-91.7,133-137.6,199.5C2505.9,1526.6,2452.9,1460.1,2400,1393.5 M1783.8,1627
		c36.1-60.5,72.2-121,108.3-181.6c36.1,60.5,72.2,121,108.3,181.6c-27,0-54,0-81.1,0c-10.3-19.7-20.4-39.4-30.8-58.9
		c-10.1,19.7-20.5,39.3-30.6,58.9C1833.1,1627,1808.5,1627,1783.8,1627 M1885.2,1627c1.1-2.1,2.2-4.3,3.4-6.4
		c1.1,2.1,2.2,4.2,3.3,6.4C1889.6,1627,1887.4,1627,1885.2,1627 M1227.2,1625.3c1.3-0.6,2.3,1.7,0.8,2.1
		C1226.6,1628,1225.6,1625.7,1227.2,1625.3 M782.6,1639l0.2,0.3c67.2,84.3,134.2,168.8,201.4,253.1c-67.4,85-135,169.8-202.5,254.7
		c-23.2-98.1-32.4-199.4-28.1-300.1C756.6,1776.9,766.4,1707.2,782.6,1639 M823.7,1651.4c117.5-0.1,234.9,0.1,352.4-0.1
		c-58.8,73.9-117.6,147.8-176.3,221.7c-49.2-62-98.5-123.9-147.8-185.8C842.5,1675.2,832.9,1663.4,823.7,1651.4 M1207.2,1651.3
		c12.7,0.1,25.5,0,38.2,0c54.6,79,109,158.1,163.6,237.2c-57.6,83.3-115,166.8-172.6,250.2c-8.4,0.1-16.8,0-25.2,0.1
		c-48.9-61.1-97.5-122.5-146.3-183.8c-16.5-20.9-33.3-41.6-49.6-62.6c48.4-61,96.9-121.9,145.4-182.8
		C1176.3,1690.2,1191.6,1670.6,1207.2,1651.3 M1275.4,1651.3c99,0,198,0,297,0c-21.6,31.6-43.5,63.1-65.2,94.7c-5.7,0-11.5,0-17.2,0
		c2.8,4.3,5.6,8.6,8.3,12.9c-24.8,35.9-49.5,71.9-74.4,107.8C1374.4,1795,1325,1723,1275.4,1651.3 M1626.5,1651.4
		c38.2-0.1,76.3,0.1,114.5-0.1c-18.8,31.5-37.7,63-56.3,94.6c-2.9,0.1-5.9,0.1-8.8,0.1C1659.4,1714.5,1643.1,1682.9,1626.5,1651.4
		 M1769.3,1651.4c25.3,0,50.6,0,75.8,0c-16.4,31.6-32.9,63.1-49.3,94.7c-27.7,0-55.3,0-83,0
		C1731.6,1714.5,1750.4,1682.9,1769.3,1651.4 M1872.5,1651.4c10.7-0.1,21.3,0,32,0c16.6,31.5,32.9,63.1,49.4,94.7
		c-43.6,0-87.1,0-130.7,0C1839.7,1714.5,1856,1682.9,1872.5,1651.4 M1932,1651.3c27.6,0.1,55.2,0,82.8,0
		c18.9,31.5,37.7,63.1,56.5,94.6c-30,0-60,0-90,0C1964.9,1714.4,1948.4,1682.9,1932,1651.3 M2043.1,1651.3
		c41.2,0.1,82.3,0,123.5,0.1c-16.6,31.5-32.9,63.1-49.4,94.6c-5.9-0.1-11.9,0.1-17.8-0.1C2080.8,1714.3,2061.9,1682.8,2043.1,1651.3
		 M2203.7,1651.4c105,0,210-0.1,315,0c-52.7,76-105,152.3-157.6,228.4c-27.3-39.5-54.6-79.1-81.8-118.7c3.3-5,6.5-10.1,9.8-15.1
		c-6.7,0-13.5,0-20.2,0C2247.2,1714.4,2225.3,1683,2203.7,1651.4 M2548.7,1651.4c7.8,0,15.6,0,23.4,0c2.7-0.4,3.7,2.7,5.3,4.2
		c64.1,80.6,128.2,161.3,192.4,241.9c-47.8,60.3-95.8,120.5-143.7,180.7c-16.1,20.2-32.1,40.5-48.3,60.6c-12.7-0.1-25.5,0-38.2,0
		c-54.6-79-109.1-158.2-163.6-237.2C2433.7,1818.2,2491,1734.7,2548.7,1651.4 M2605,1651.3c120.1,0.1,240.3,0,360.4,0.1
		c-59.8,75.7-120.1,151.1-180.1,226.7C2725.3,1802.4,2665.1,1726.9,2605,1651.3 M2995.6,1652.6c22.3,98,30.5,199,25.4,299.3
		c-2.7,52.5-9.1,104.9-19.3,156.5c-2.1,10.9-4.6,21.6-6.8,32.5l-0.4-0.5c-4.3-4.4-7.8-9.5-11.8-14.3
		c-60.6-76.2-121.2-152.5-181.9-228.6C2865.7,1815.9,2930.8,1734.4,2995.6,1652.6 M1537.2,1746c21.2-30.6,42.3-61.3,63.5-91.9
		c15.8,30.7,31.9,61.3,47.8,92C1611.4,1746,1574.3,1746.1,1537.2,1746 M2144.6,1746c13.6-25.9,26.9-52,40.7-77.8
		c17.8,26,35.7,51.9,53.6,77.8C2207.5,1746.1,2176.1,1746,2144.6,1746 M1534.9,1770.3c42,0.1,84-0.1,125.9,0.1
		c2,2.2,2.9,5.2,4.5,7.7c-19.9,33.7-40.1,67.3-60.1,100.9C1581.7,1842.8,1558.2,1806.6,1534.9,1770.3 M1698.3,1770.4
		c28.3,0,56.5,0,84.8,0c-15.8,30.2-31.3,60.6-47.4,90.6c-14.1-27.4-28.4-54.6-42.6-81.9C1694.8,1776.1,1696.5,1773.2,1698.3,1770.4
		 M1810.5,1770.4c52,0,104,0,156,0c23,44.2,46.2,88.2,68.9,132.5c-15.3,29.3-30.5,58.6-45.8,87.8c-62.1,0.1-124.2,0-186.3,0
		c-17.9-34.5-36.1-68.9-53.8-103.6C1770,1848.2,1790.2,1809.2,1810.5,1770.4 M1994,1770.3c30.6,0.1,61.2,0,91.8,0
		c3.4,5.5,6.7,11.1,10,16.7c-15.4,29.8-31,59.4-46.4,89.2C2030.7,1841.1,2012.5,1805.6,1994,1770.3 M2132.1,1770.3
		c37.4,0.1,74.8,0,112.2,0c-22.4,35-45.1,69.8-67.7,104.7c-17.5-29.7-35.4-59.1-52.9-88.9
		C2126.5,1780.9,2129.1,1775.5,2132.1,1770.3 M1512.8,1781.3c26.4,40.2,52.3,80.7,78.5,121c-22,37-44.1,74-66.2,111
		c-28.7-41.6-57.3-83.2-86.1-124.8C1463.5,1852.8,1488.3,1817.1,1512.8,1781.3 M2190.5,1898.2c24.8-38.2,49.4-76.5,74.3-114.6
		c24.9,36,49.7,72.1,74.5,108.1c2.1,3.4,4.8,6.4,6.7,10c-53.8,78.2-107.7,156.2-161.5,234.3c-20.8-40.4-42-80.6-63-121
		c46.2,0,92.3,0,138.5,0C2236.9,1976.1,2213.6,1937.2,2190.5,1898.2 M1619.9,1901.8c19.5-32.8,39-65.6,58.7-98.2
		c14.4,27.9,29,55.8,43.6,83.7c-16.5,31.9-33.3,63.6-49.7,95.6C1654.8,1955.9,1637.5,1928.8,1619.9,1901.8 M2063,1902.8
		c15.8-30.4,31.7-60.8,47.5-91.2c17,28.8,34.3,57.5,51.3,86.3c-18.8,28.9-37.5,57.9-56.2,86.8
		C2091.5,1957.3,2077.2,1930,2063,1902.8 M1266.3,2138.7c52.7-76.1,105-152.3,157.6-228.5c52.6,76.1,105,152.4,157.6,228.5
		C1476.5,2138.7,1371.4,2138.8,1266.3,2138.7 M819.4,2138.7c60.1-75.6,120.2-151.1,180.3-226.7c60.1,75.6,120.3,151.2,180.4,226.8
		C1059.9,2138.7,939.7,2138.8,819.4,2138.7 M1735.7,1913.8c13.7,25.5,26.8,51.4,40.3,77c-26.8-0.1-53.6,0-80.4,0
		C1709,1965.1,1722.4,1939.4,1735.7,1913.8 M2785.4,1917c58.7,73.9,117.6,147.7,176.2,221.7c-117.5,0.1-235-0.1-352.6,0.1
		C2667.8,2064.9,2726.6,1991,2785.4,1917 M2175.6,1921c13.9,23.2,27.8,46.4,41.6,69.7c-28.9,0-57.8,0-86.7,0
		C2145.6,1967.5,2160.7,1944.3,2175.6,1921 M2212.5,2138.7c49.5-71.8,99-143.7,148.6-215.4c49.6,71.8,99,143.7,148.6,215.4
		C2410.7,2138.8,2311.6,2138.7,2212.5,2138.7 M1566.9,1990.8c13-21.9,26.1-43.8,39.1-65.7c14.2,21.9,28.3,43.8,42.5,65.7
		C1621.3,1990.7,1594.1,1990.7,1566.9,1990.8 M2017.1,1990.8c10.8-20.6,21.4-41.3,32.3-61.7c10.6,20.6,21.4,41.2,32.1,61.7
		C2060,1990.7,2038.5,1990.7,2017.1,1990.8 M1526.2,2015.1c43.1-0.1,86.3,0,129.4-0.1c-18.6,35.6-37,71.3-55.8,106.8
		C1575.3,2086.2,1550.8,2050.6,1526.2,2015.1 M1693.2,2015c31.9-0.1,63.7-0.1,95.6,0c21.4,41.3,43,82.4,64.4,123.7
		c-26.6-0.1-53.2,0-79.8-0.1C1746.5,2097.5,1719.9,2056.2,1693.2,2015 M1816.1,2015c53.6,0,107.3,0,160.9,0
		c-21.4,41.2-43,82.4-64.4,123.7c-10.7,0.1-21.3,0-32,0C1859,2097.5,1837.6,2056.2,1816.1,2015 M2004.3,2015.1
		c27.2-0.1,54.4-0.1,81.6,0c-26.8,41.2-53.4,82.5-80.1,123.7c-21.9,0.1-43.9,0-65.8,0.1C1961.4,2097.5,1983,2056.4,2004.3,2015.1
		 M1618.5,2138.7c18.8-35.9,37.5-71.8,56.2-107.7c23.2,35.9,46.5,71.8,69.7,107.7C1702.4,2138.7,1660.4,2138.8,1618.5,2138.7
		 M2034.8,2138.8c22.9-35.3,45.6-70.7,68.6-105.9c18.3,35.3,36.8,70.6,55.2,105.9C2117.4,2138.7,2076.1,2138.7,2034.8,2138.8
		 M785.6,2163c137.8,0.1,275.7-0.2,413.5,0.1c4.2,4.1,7.4,9.1,11.2,13.6c-56.2,81.4-112.3,162.8-168.4,244.3
		c120.9,0,241.9,0,362.8,0c7.8,10,15.9,19.9,23.7,29.9c-43.4,83.4-86.9,166.7-130.3,250c109.7,0,219.5,0,329.2,0
		c81.9,102.8,163.5,205.7,245.4,308.4c-97-1.3-194-14.4-287.6-39.9c-158.3-42.8-307.2-120.3-432.9-225.6
		c-63.2-52.8-120.7-112.6-170.9-177.9C889.5,2446.8,822.2,2308.9,785.6,2163 M1240.8,2176c3-4.3,5.7-8.9,9.1-12.9
		c109.5-0.1,219,0,328.5-0.1c-40.6,77.8-81.1,155.7-121.8,233.5c-13.4-0.1-26.9,0.2-40.3-0.1c-14.7-17.7-28.7-36-43.2-53.9
		C1329.1,2287,1284.9,2231.5,1240.8,2176 M1628.3,2163c43.9,0,87.9,0,131.8,0c43.1,66.7,86.4,133.3,129.5,200
		c43.3-66.6,86.3-133.4,129.6-200c48.9,0,97.8,0,146.8,0c-53.7,77.9-107.3,155.7-161,233.5c-71.8,0-143.7,0-215.5,0
		C1735.5,2318.8,1681.9,2240.9,1628.3,2163 M1789,2163c25.6,0,51.2,0,76.8,0c10.2,19.7,20.5,39.3,30.7,59
		c10.4-19.6,20.5-39.3,30.8-59c20.9,0,41.9,0,62.8,0c-33.6,51.7-66.9,103.6-100.6,155.2C1856.1,2266.5,1822.5,2214.8,1789,2163
		 M1893.2,2163c2.2-0.1,4.5-0.1,6.7,0c-1.1,2.1-2.2,4.2-3.4,6.3C1895.4,2167.2,1894.3,2165.1,1893.2,2163 M2198.7,2163
		c109.3,0.1,218.6-0.1,327.9,0.1c4.8,7.3,9.9,14.4,14.8,21.7c-55.6,69.9-111.2,139.8-166.8,209.7c-0.8,0.7-1.4,2.1-2.6,2
		c-17.2,0.1-34.3,0-51.5,0C2279.7,2318.8,2239.3,2240.8,2198.7,2163 M2556.5,2163c0.8-1.2,2.9,0.1,2,1.3
		C2557.6,2165.4,2555.6,2164.2,2556.5,2163 M2571.9,2185.5c5.9-7.6,11.9-15.1,17.9-22.6c133.3,0.1,266.5,0,399.7,0
		c-40.1,159.9-117.2,310.2-222.8,436.8c-98,117.9-220.4,215.4-357,284.9c-80.4,41-165.8,72.5-253.6,93.4
		c-78.4,18.7-158.8,29.1-239.3,30.9c81.7-102.7,163.3-205.4,245-308.1c105.7,0.1,211.5,0,317.2,0c-41.9-80.3-83.8-160.6-125.6-241
		c10.3-13,20.7-25.9,30.9-39c116.6-0.1,233.2,0,349.8,0C2680.1,2342.5,2626.1,2264,2571.9,2185.5 M1602.5,2169.2
		c52.2,75.8,104.6,151.5,156.7,227.4c-91.7,0-183.4-0.1-275.1,0C1523.6,2320.8,1563.2,2245,1602.5,2169.2 M2181.7,2183.3
		c37.3,71,74.1,142.2,111.3,213.2c-86.1-0.1-172.1,0-258.1,0C2083.7,2325.4,2132.9,2254.5,2181.7,2183.3 M1088.8,2396.5
		c45.7-66.7,91.7-133.1,137.6-199.7c52.9,66.6,105.9,133.2,158.8,199.7C1286.4,2396.5,1187.6,2396.6,1088.8,2396.5 M2404,2396.6
		c50.5-63.7,101.2-127.3,151.8-190.9c43.8,63.6,87.8,127.1,131.5,190.9C2592.9,2396.6,2498.4,2396.5,2404,2396.6 M1435.7,2421
		c2.8,0,5.5,0,8.3,0c-1.1,2.1-2.2,4.2-3.4,6.3C1439,2425.2,1437.3,2423.1,1435.7,2421 M1471.3,2421.1c101.6-0.1,203.2,0,304.8-0.1
		c40.4,58.4,80.6,116.9,120.9,175.3c40.4-58.4,80.5-116.9,120.9-175.3c95.9,0.1,191.8,0,287.8,0c6.2,12.1,12.6,24.1,18.8,36.2
		c-46.9,59.2-94.1,118.3-141.1,177.4c-11.3,13.9-22.1,28.4-33.8,42c-169.6,0.2-339.2,0-508.7,0.1c-1.8,0.4-2.8-1-3.7-2.2
		c-60-75.5-120.1-150.9-180.1-226.4C1461.9,2439.1,1466.7,2430.1,1471.3,2421.1 M1806.1,2421c60.6,0,121.3,0,181.9,0
		c-30.4,43.9-60.6,87.9-90.9,131.8C1866.7,2508.9,1836.5,2464.9,1806.1,2421 M2333.1,2421c6.8,0,13.6,0,20.3,0
		c-4.1,5.1-8.1,10.3-12.3,15.4C2338.5,2431.3,2335.8,2426.1,2333.1,2421 M1444.9,2471.8c54.6,68.2,108.7,136.7,163.2,204.9
		c-90-0.1-180,0-269.9-0.1C1373.7,2608.4,1409.3,2540.1,1444.9,2471.8 M2181,2676.7c52-65.2,103.9-130.6,155.9-195.9
		c34,65.3,68,130.6,102.1,195.9C2353,2676.8,2267,2676.7,2181,2676.7 M1658.4,2701c157.5,0,314.9,0,472.4,0
		c-78.7,99-157.5,197.9-236.2,296.9C1815.8,2899,1737.1,2800,1658.4,2701L1658.4,2701z"/>
	<path class="st1" d="M1841.6,753.9c97-3.8,194.5,4.3,289.5,24.2c141.7,29.6,277.8,85.8,399,165c131.3,85.6,245.2,198.1,331.9,328.8
		c46,69.2,84.3,143.4,114,221c32.6,85.2,54.8,174.4,65.8,265c12.2,100.6,10.9,202.8-3.9,303c-13.2,89.3-37.3,176.9-71.5,260.4
		c-59.2,144.6-148.8,276.4-260.8,385.2c-110,107.2-241.5,192.1-384.3,248.5c-85.2,33.7-174.4,57.3-265.1,70.2
		c-192.3,27.4-391.4,7.5-573.8-59.4c-152.6-55.7-293.4-143.7-410.1-256.8c-64.2-62-121.2-131.5-169.3-206.7
		c-85-132.4-141.9-282.8-165.2-438.4c-15.2-100.8-16.7-203.7-4.4-304.9c10.9-90.1,32.8-178.9,65-263.7
		c55.6-146.5,142.4-281,252.3-392.8c107.3-109.5,236.7-197.4,377.9-257C1559.1,790.2,1699.9,759.1,1841.6,753.9 M1619.1,811.9
		c-88.1,21-173.7,52.5-254.3,93.7c-136.6,69.6-258.9,167.2-356.9,285.2c-105.3,126.4-182.2,276.5-222.3,436.2
		c-1.1,4.1-2.2,8.1-2.8,12.3l-0.2-0.3c-16.2,68.2-26,137.9-28.9,207.9c-4.3,100.7,4.8,202,28.1,300.1c1.2,5.3,2.5,10.6,3.8,15.9
		c36.7,145.8,103.9,283.8,195.7,402.9c50.2,65.3,107.6,125.1,170.9,177.9c125.7,105.3,274.6,182.8,432.9,225.6
		c93.7,25.5,190.6,38.6,287.6,39.9c14.7,0.1,29.4,0.2,44.1-0.3c80.6-1.9,160.9-12.3,239.3-30.9c87.8-21,173.2-52.4,253.6-93.4
		c136.6-69.6,259-167,357-284.9c105.6-126.6,182.6-276.9,222.8-436.8c1.8-6.3,2.9-12.7,4.8-18.9c0.2-1.2,1-2.5,0.3-3.6l0.4,0.5
		c2.2-10.9,4.8-21.6,6.8-32.5c10.2-51.6,16.6-104,19.3-156.5c5-100.3-3.2-201.4-25.4-299.3c-1.8-8.6-3.9-17.1-6.1-25.6
		c-34.6-137.8-96.6-268.5-180.7-382.9c-104.3-142.3-242.6-259.3-399.8-339.1c-153.2-78.2-324.3-120.9-496.3-124l0.7,0.8
		c-0.8-1.1-2.3-0.9-3.4-1c-13.8-0.3-27.6-0.3-41.4-0.1C1784.7,782.1,1700.8,792.4,1619.1,811.9L1619.1,811.9z"/>
	<path class="st2" d="M1623.3,1089c81.9-102.7,163.4-205.7,245.4-308.3c13.8-0.2,27.6-0.2,41.4,0.1c1.1,0.2,2.6-0.1,3.4,1
		c81.4,102.4,162.9,204.9,244.4,307.3c109.7,0,219.5,0,329.2,0c-43.4,83.4-86.9,166.7-130.3,250.1c7.9,10,15.9,19.9,23.7,29.9
		c120.9,0.1,241.9,0,362.8,0c-56.2,81.4-112.2,162.9-168.4,244.2c3.4,4.3,6.6,8.6,10.1,12.8c0.8,1.4,2.6,0.8,4.1,1
		c133.5-0.1,267,0,400.5,0c2.2,8.5,4.3,17,6.1,25.6c-64.8,81.7-129.9,163.2-194.7,245c60.7,76.2,121.3,152.4,181.9,228.6
		c3.9,4.7,7.4,9.8,11.8,14.3c0.8,1.1-0.1,2.4-0.3,3.6c-1.8,6.2-3,12.6-4.8,18.9c-133.2,0-266.5,0-399.7,0c-6,7.5-12,15-17.9,22.6
		c54.2,78.4,108.2,157,162.4,235.5c-116.6,0-233.2-0.1-349.8,0c-10.2,13.1-20.7,26-30.9,39c41.8,80.3,83.7,160.6,125.6,241
		c-105.7,0-211.5,0-317.2,0c-81.7,102.6-163.4,205.4-245,308.1c-14.7,0.5-29.4,0.5-44.1,0.3c-82-102.7-163.6-205.6-245.4-308.4
		c-109.7,0.1-219.5,0-329.2,0c43.4-83.3,86.9-166.7,130.3-250c-7.8-10-15.9-19.9-23.7-29.9c-120.9-0.1-241.9,0-362.8,0
		c56.2-81.4,112.3-162.9,168.4-244.3c-3.8-4.5-7-9.5-11.2-13.6c-137.8-0.3-275.7,0-413.5-0.1c-1.4-5.3-2.7-10.6-3.8-15.9
		c67.5-84.9,135.1-169.7,202.5-254.7c-67.2-84.3-134.2-168.8-201.4-253.1c0.6-4.2,1.7-8.2,2.8-12.3c136.5-0.1,273.1,0.1,409.6-0.1
		c6.4-7.1,11.9-15,18.1-22.3c-54-78.6-108.3-157.1-162.4-235.6c116.6,0,233.2,0.1,349.8,0c10.2-13.1,20.7-26,30.9-39
		c-41.8-80.3-83.7-160.6-125.6-241C1411.8,1089,1517.5,1089,1623.3,1089 M1890.5,792.1c-78.7,99-157.4,198-236.2,297
		c157.5,0,314.9,0,472.4,0C2048,990,1969.3,891,1890.5,792.1 M1346.2,1113.3c26.2,50.3,52.4,100.5,78.6,150.7
		c7.9,14.9,15.4,30.2,23.7,45c51.8-65.4,103.7-130.5,155.6-195.8C1518.1,1113.4,1432.1,1113.3,1346.2,1113.3 M1635.4,1113.4
		c-4.6,4.4-8,9.9-12.2,14.7c-54.2,68.2-108.6,136.4-162.7,204.7c6.3,12.1,12.6,24.1,18.8,36.2c95.9,0.1,191.9,0,287.8,0.1
		c40.1-58,80.1-116.1,120.1-174.2c0.5-0.9,1-0.9,1.6,0c40,58,80,116.1,120.1,174.1c101.6,0,203.2,0,304.8,0
		c4.6-9.1,9.4-18.1,14.1-27.1c-60.1-75.6-120.3-151.3-180.5-226.9c-0.8-1.1-1.9-1.9-3.3-1.7
		C1974.5,1113.4,1805,1113.2,1635.4,1113.4 M2177.1,1113.3c54.4,68.3,108.7,136.6,163.1,205c35.6-68.3,71.2-136.6,106.8-204.9
		C2357,1113.3,2267,1113.4,2177.1,1113.3 M1797.1,1369c60.6,0,121.3,0,181.9,0c-30.4-43.9-60.6-87.9-91-131.8
		C1857.7,1281.1,1827.5,1325.1,1797.1,1369 M1431.7,1369c6.8,0,13.5,0,20.3,0c-2.6-5.2-5.3-10.3-8-15.4
		C1439.8,1358.7,1435.8,1363.9,1431.7,1369 M2344.4,1362.7c-1.1,2.1-2.2,4.2-3.2,6.3c2.7,0,5.5,0,8.3,0
		C2347.7,1366.9,2346.1,1364.8,2344.4,1362.7 M1097.7,1393.6c43.9,63.5,87.7,127.2,131.6,190.7c50.7-63.5,101.2-127.2,151.8-190.8
		C1286.6,1393.6,1192.2,1393.5,1097.7,1393.6 M1243.7,1605.2c5,7.3,9.8,14.8,15.2,21.7c109.2,0.2,218.3,0,327.5,0.1
		c-40.5-77.8-81.1-155.6-121.6-233.4c-17.6-0.1-35.2-0.1-52.8,0C1356,1464.2,1299.9,1534.7,1243.7,1605.2 M1492.2,1393.5
		c37.1,71,73.9,142.2,111.2,213.1c48.8-71.1,98-142,146.8-213.1C1664.2,1393.5,1578.2,1393.6,1492.2,1393.5 M1619.3,1627
		c45.5-0.1,90.9,0.2,136.4-0.1c4.8-8.5,10-16.8,15-25.3c40.5-67.9,80.9-135.7,121.4-203.6c45.5,76.3,91.1,152.5,136.4,228.9
		c42.8,0.2,85.6,0,128.4,0.1c-53.6-77.8-107.3-155.6-160.9-233.4c-71.9-0.1-143.9-0.1-215.8,0
		C1726.5,1471.4,1672.9,1549.2,1619.3,1627 M2025.9,1393.6c52.2,75.8,104.4,151.5,156.7,227.3c39.3-75.9,78.9-151.5,118.3-227.3
		C2209.3,1393.6,2117.6,1393.5,2025.9,1393.6 M2328.3,1393.6c-40.5,77.8-81.1,155.6-121.6,233.4c109.5,0,219.1,0.1,328.6-0.1
		c3.3-4.1,6-8.6,9.1-12.9c-58.4-73.5-116.9-146.9-175.3-220.4C2355.5,1393.5,2341.9,1393.5,2328.3,1393.6 M2400,1393.5
		c52.9,66.5,105.8,133.1,158.7,199.6c45.9-66.5,91.7-133.1,137.6-199.5C2597.6,1393.5,2498.8,1393.6,2400,1393.5 M1783.8,1627
		c24.7,0,49.4,0,74.1,0c10.2-19.7,20.5-39.2,30.6-58.9c10.4,19.6,20.5,39.3,30.8,58.9c27,0,54,0,81.1,0
		c-36.1-60.5-72.2-121-108.3-181.6C1856,1506,1819.9,1566.5,1783.8,1627 M1885.2,1627c2.2,0,4.4,0,6.7,0c-1.1-2.1-2.2-4.2-3.3-6.4
		C1887.4,1622.7,1886.3,1624.9,1885.2,1627 M1227.2,1625.3c-1.6,0.3-0.6,2.6,0.8,2.1C1229.5,1627,1228.5,1624.7,1227.2,1625.3
		 M823.7,1651.4c9.2,12.1,18.9,23.8,28.3,35.8c49.3,61.9,98.5,123.9,147.8,185.8c58.8-73.9,117.6-147.8,176.3-221.7
		C1058.6,1651.4,941.1,1651.3,823.7,1651.4 M1207.2,1651.3c-15.7,19.3-31,38.9-46.5,58.3c-48.4,61-97,121.8-145.4,182.8
		c16.3,21,33.1,41.7,49.6,62.6c48.8,61.2,97.4,122.6,146.3,183.8c8.4-0.1,16.8,0,25.2-0.1c57.6-83.3,115-166.8,172.6-250.2
		c-54.5-79.1-109-158.2-163.6-237.2C1232.7,1651.3,1220,1651.4,1207.2,1651.3 M1275.4,1651.3c49.7,71.7,99,143.6,148.6,215.4
		c24.9-35.9,49.6-71.9,74.4-107.8c-2.7-4.3-5.6-8.6-8.3-12.9c5.7,0,11.4,0,17.2,0c21.7-31.6,43.6-63,65.2-94.7
		C1473.4,1651.3,1374.4,1651.4,1275.4,1651.3 M1626.5,1651.4c16.6,31.5,32.9,63.1,49.4,94.7c2.9,0,5.8,0,8.8-0.1
		c18.6-31.6,37.5-63.1,56.3-94.6C1702.8,1651.4,1664.6,1651.3,1626.5,1651.4 M1769.3,1651.4c-18.9,31.5-37.7,63.1-56.5,94.7
		c27.7,0,55.3,0,83,0c16.4-31.6,32.9-63.1,49.3-94.7C1819.8,1651.4,1794.6,1651.3,1769.3,1651.4 M1872.5,1651.4
		c-16.5,31.5-32.9,63.1-49.3,94.6c43.6,0,87.2,0,130.7,0c-16.5-31.5-32.8-63.2-49.4-94.7C1893.9,1651.4,1883.2,1651.3,1872.5,1651.4
		 M1932,1651.3c16.4,31.6,32.9,63.1,49.3,94.7c30,0,60,0,90,0c-18.8-31.6-37.6-63.1-56.5-94.6
		C1987.2,1651.3,1959.6,1651.4,1932,1651.3 M2043.1,1651.3c18.8,31.5,37.7,63,56.3,94.6c5.9,0.2,11.9,0.1,17.8,0.1
		c16.5-31.5,32.8-63.2,49.4-94.6C2125.5,1651.3,2084.3,1651.4,2043.1,1651.3 M2203.7,1651.4c21.6,31.7,43.4,63.1,65.2,94.7
		c6.7,0,13.5,0,20.2,0c-3.3,5-6.5,10.1-9.8,15.1c27.3,39.6,54.5,79.1,81.8,118.7c52.6-76.1,104.9-152.4,157.6-228.4
		C2413.7,1651.3,2308.7,1651.4,2203.7,1651.4 M2548.7,1651.4c-57.6,83.3-115,166.8-172.6,250.1c54.6,79.1,109,158.2,163.6,237.2
		c12.7,0.1,25.4,0,38.2,0c16.2-20.1,32.2-40.4,48.3-60.6c47.9-60.2,95.9-120.4,143.7-180.7c-64.2-80.6-128.3-161.3-192.4-241.9
		c-1.6-1.6-2.7-4.7-5.3-4.2C2564.3,1651.3,2556.4,1651.3,2548.7,1651.4 M2605,1651.3c60.1,75.6,120.2,151.1,180.3,226.7
		c60-75.6,120.3-150.9,180.1-226.7C2845.3,1651.3,2725.2,1651.4,2605,1651.3 M1537.2,1746c37.1,0.1,74.2,0,111.3,0
		c-15.9-30.7-32.1-61.2-47.8-92C1579.4,1684.6,1558.4,1715.4,1537.2,1746 M2144.6,1746c31.4,0,62.9,0,94.3,0
		c-17.9-25.9-35.8-51.8-53.6-77.8C2171.5,1694,2158.2,1720.1,2144.6,1746 M1534.9,1770.3c23.3,36.3,46.9,72.5,70.3,108.7
		c20-33.6,40.2-67.2,60.1-100.9c-1.5-2.5-2.5-5.6-4.5-7.7C1618.8,1770.3,1576.8,1770.4,1534.9,1770.3 M1698.3,1770.4
		c-1.8,2.8-3.5,5.8-5.2,8.7c14.2,27.3,28.5,54.6,42.6,81.9c16-30.1,31.6-60.4,47.4-90.6C1754.8,1770.4,1726.6,1770.3,1698.3,1770.4
		 M1810.5,1770.4c-20.4,38.9-40.6,77.9-60.9,116.8c17.7,34.7,35.9,69.1,53.8,103.6c62.1,0,124.2,0.1,186.3,0
		c15.3-29.3,30.5-58.6,45.8-87.8c-22.8-44.3-45.9-88.3-68.9-132.5C1914.5,1770.3,1862.5,1770.3,1810.5,1770.4 M1994,1770.3
		c18.5,35.3,36.7,70.8,55.4,105.9c15.4-29.7,31-59.4,46.4-89.2c-3.3-5.6-6.6-11.2-10-16.7C2055.2,1770.3,2024.6,1770.4,1994,1770.3
		 M2132.1,1770.3c-3,5.2-5.6,10.6-8.4,15.9c17.4,29.7,35.3,59.2,52.9,88.9c22.6-34.9,45.3-69.7,67.7-104.7
		C2206.9,1770.3,2169.5,1770.4,2132.1,1770.3 M1512.8,1781.3c-24.5,35.8-49.3,71.4-73.8,107.2c28.8,41.5,57.4,83.2,86.1,124.8
		c22.1-37,44.2-74,66.2-111C1565,1862,1539.1,1821.5,1512.8,1781.3 M2190.5,1898.2c23.1,39,46.4,77.8,69.6,116.8
		c-46.2,0-92.4,0-138.5,0c21,40.3,42.1,80.6,63,121c53.8-78.1,107.8-156.2,161.5-234.3c-1.9-3.5-4.5-6.6-6.7-10
		c-24.9-36-49.7-72.1-74.5-108.1C2239.9,1821.7,2215.3,1860,2190.5,1898.2 M1619.9,1901.8c17.6,27,34.9,54.1,52.6,81
		c16.4-32,33.2-63.7,49.7-95.6c-14.6-27.9-29.1-55.7-43.6-83.7C1658.9,1836.3,1639.4,1869.1,1619.9,1901.8 M2063,1902.8
		c14.2,27.3,28.5,54.5,42.6,81.9c18.7-29,37.4-57.9,56.2-86.8c-17-28.8-34.4-57.4-51.3-86.3
		C2094.6,1841.9,2078.8,1872.3,2063,1902.8 M1266.3,2138.7c105.1,0.1,210.2,0,315.3,0c-52.6-76.1-105-152.4-157.6-228.5
		C1371.4,1986.4,1319,2062.6,1266.3,2138.7 M819.4,2138.7c120.2,0,240.5-0.1,360.7,0c-60.1-75.6-120.3-151.2-180.4-226.8
		C939.7,1987.6,879.5,2063.1,819.4,2138.7 M1735.7,1913.8c-13.3,25.7-26.7,51.3-40.1,77c26.8,0,53.6,0,80.4,0
		C1762.6,1965.1,1749.4,1939.3,1735.7,1913.8 M2785.4,1917c-58.8,73.9-117.6,147.8-176.4,221.7c117.5-0.1,235,0,352.6-0.1
		C2903,2064.7,2844,1991,2785.4,1917 M2175.6,1921c-14.9,23.3-30,46.5-45.1,69.7c28.9,0,57.8,0,86.7,0
		C2203.4,1967.5,2189.6,1944.2,2175.6,1921 M2212.5,2138.7c99.1,0,198.1,0.1,297.2,0c-49.7-71.7-99-143.6-148.6-215.4
		C2311.6,1995.1,2262.1,2066.9,2212.5,2138.7 M1566.9,1990.8c27.2,0,54.4,0,81.7,0c-14.2-21.9-28.3-43.8-42.5-65.7
		C1592.9,1947,1579.8,1968.8,1566.9,1990.8 M2017.1,1990.8c21.5-0.1,43,0,64.4,0c-10.7-20.6-21.5-41.1-32.1-61.7
		C2038.4,1949.5,2027.9,1970.2,2017.1,1990.8 M1526.2,2015.1c24.6,35.6,49.1,71.1,73.6,106.8c18.8-35.5,37.2-71.2,55.8-106.8
		C1612.4,2015,1569.3,2014.9,1526.2,2015.1 M1693.2,2015c26.8,41.2,53.4,82.4,80.1,123.7c26.6,0.1,53.2,0,79.8,0.1
		c-21.4-41.3-43-82.4-64.4-123.7C1756.9,2015,1725,2015,1693.2,2015 M1816.1,2015c21.5,41.2,43,82.5,64.5,123.7
		c10.7,0,21.3,0.1,32,0c21.5-41.2,43-82.4,64.4-123.7C1923.4,2015,1869.7,2015,1816.1,2015 M2004.3,2015.1
		c-21.3,41.3-43,82.4-64.4,123.7c21.9-0.1,43.9,0,65.8-0.1c26.8-41.2,53.4-82.5,80.1-123.7C2058.7,2015,2031.5,2014.9,2004.3,2015.1
		 M1618.5,2138.7c41.9,0,83.9,0,125.8,0c-23.2-36-46.5-71.8-69.7-107.7C1655.9,2066.9,1637.3,2102.9,1618.5,2138.7 M2034.8,2138.8
		c41.3,0,82.6,0,123.8,0c-18.4-35.3-36.8-70.6-55.2-105.9C2080.4,2068,2057.6,2103.4,2034.8,2138.8 M1240.8,2176
		c44.2,55.5,88.3,111,132.4,166.5c14.4,17.9,28.5,36.3,43.2,53.9c13.4,0.3,26.9,0,40.3,0.1c40.7-77.8,81.2-155.7,121.8-233.5
		c-109.5,0-219-0.1-328.5,0.1C1246.5,2167.1,1243.8,2171.7,1240.8,2176 M1628.3,2163c53.7,77.9,107.3,155.8,161.1,233.5
		c71.8,0,143.7,0,215.5,0c53.7-77.8,107.4-155.7,161-233.5c-48.9,0-97.8,0-146.8,0c-43.2,66.6-86.3,133.4-129.6,200
		c-43.1-66.7-86.3-133.3-129.5-200C1716.1,2163,1672.2,2163,1628.3,2163 M1789,2163c33.4,51.8,67,103.4,100.4,155.2
		c33.7-51.6,67-103.5,100.6-155.2c-20.9,0-41.9,0-62.8,0c-10.3,19.6-20.4,39.4-30.8,59c-10.2-19.7-20.5-39.3-30.7-59
		C1840.2,2163,1814.6,2163,1789,2163 M1893.2,2163c1.1,2.1,2.2,4.1,3.3,6.3c1.2-2.1,2.3-4.2,3.4-6.3
		C1897.7,2163,1895.4,2163,1893.2,2163 M2198.7,2163c40.6,77.8,81.1,155.8,121.8,233.5c17.2,0,34.3,0,51.5,0c1.2,0.1,1.8-1.3,2.6-2
		c55.6-69.9,111.2-139.8,166.8-209.7c-4.8-7.3-10-14.3-14.8-21.7C2417.3,2162.9,2308,2163.1,2198.7,2163 M2556.5,2163
		c-0.9,1.2,1.1,2.3,2,1.3C2559.4,2163.1,2557.3,2161.8,2556.5,2163 M1602.5,2169.2c-39.3,75.9-79,151.6-118.4,227.4
		c91.7-0.1,183.4,0,275.1,0C1707.1,2320.7,1654.8,2245,1602.5,2169.2 M2181.7,2183.3c-48.9,71.1-98,142.1-146.9,213.2
		c86,0,172.1-0.1,258.1,0C2255.9,2325.5,2219,2254.3,2181.7,2183.3 M1088.8,2396.5c98.8,0.1,197.6,0,296.4,0
		c-53-66.5-105.9-133.1-158.8-199.7C1180.5,2263.4,1134.5,2329.9,1088.8,2396.5 M2404,2396.6c94.4-0.1,188.9,0,283.3-0.1
		c-43.7-63.7-87.7-127.2-131.5-190.9C2505.2,2269.3,2454.5,2332.9,2404,2396.6 M1435.7,2421c1.6,2.1,3.3,4.2,4.9,6.3
		c1.2-2.1,2.3-4.2,3.4-6.3C1441.2,2421,1438.4,2421,1435.7,2421 M1471.3,2421.1c-4.6,9.1-9.4,18-14.1,27.1
		c60,75.5,120.1,150.9,180.1,226.4c0.9,1.2,2,2.6,3.7,2.2c169.6-0.1,339.2,0.1,508.7-0.1c11.6-13.6,22.4-28.1,33.8-42
		c47-59.2,94.1-118.2,141.1-177.4c-6.3-12.1-12.6-24.1-18.8-36.2c-95.9-0.1-191.8,0-287.8,0c-40.4,58.4-80.6,116.9-120.9,175.3
		c-40.4-58.4-80.5-116.9-120.9-175.3C1674.5,2421.1,1572.9,2420.9,1471.3,2421.1 M1806.1,2421c30.4,43.9,60.6,87.9,91,131.8
		c30.4-43.9,60.6-87.9,90.9-131.8C1927.4,2421,1866.7,2421,1806.1,2421 M2333.1,2421c2.7,5.1,5.3,10.3,8,15.4
		c4.1-5.1,8.2-10.3,12.3-15.4C2346.7,2421,2339.9,2421,2333.1,2421 M1444.9,2471.8c-35.6,68.3-71.2,136.6-106.8,204.9
		c90,0.1,180-0.1,269.9,0.1C1553.6,2608.5,1499.5,2540,1444.9,2471.8 M2181,2676.7c86,0,172,0,257.9,0
		c-34-65.3-68-130.6-102.1-195.9C2284.9,2546.1,2233.1,2611.5,2181,2676.7 M1658.4,2701c78.7,99,157.4,198,236.2,296.9
		c78.7-99,157.4-198,236.2-296.9C1973.3,2701,1815.8,2701,1658.4,2701L1658.4,2701z"/>
</g>
</svg>
